<svg width="10" height="10" viewBox="0 0 10 10" fill="black" xmlns="http://www.w3.org/2000/svg">
    <path d="M4.56039 0L9.32017 0.679831L10 5.43961L5.58062 9.85899C5.53597 9.90369 5.48294 9.93916 5.42457 9.96335C5.36621 9.98755 5.30364 10 5.24046 10C5.17728 10 5.11472 9.98755 5.05635 9.96335C4.99798 9.93916 4.94496 9.90369 4.90031 9.85899L0.140527 5.09921C0.0505409 5.00907 0 4.88691 0 4.75954C0 4.63217 0.0505409 4.51 0.140527 4.41986L4.56039 0ZM5.92053 4.07995C6.00984 4.16922 6.11586 4.24004 6.23253 4.28834C6.34921 4.33664 6.47426 4.3615 6.60053 4.36147C6.72681 4.36145 6.85185 4.33656 6.96851 4.28821C7.08517 4.23987 7.19116 4.16902 7.28044 4.07971C7.36971 3.9904 7.44052 3.88438 7.48883 3.76771C7.53713 3.65103 7.56198 3.52599 7.56196 3.39971C7.56194 3.27343 7.53704 3.14839 7.4887 3.03173C7.44035 2.91507 7.3695 2.80908 7.2802 2.71981C7.09983 2.5395 6.85523 2.43824 6.60019 2.43828C6.34516 2.43833 6.1006 2.53968 5.92029 2.72005C5.73999 2.90041 5.63872 3.14502 5.63877 3.40005C5.63881 3.65508 5.74017 3.89965 5.92053 4.07995Z"/>
</svg>
