<svg width="250" height="246" viewBox="0 0 250 246" fill="none" xmlns="http://www.w3.org/2000/svg">
    <path d="M220.031 210.939C214.954 216.219 210.15 219.624 206.354 222.315C161.739 253.939 108.947 244.721 97.7272 242.469C81.1592 239.145 49.1334 232.719 25.9794 205.82C-9.05072 165.125 -3.59602 101.01 23.5757 58.6865C28.5458 50.9448 54.7995 7.97697 108.16 1.0863C140.453 -3.08384 178.097 5.32684 205.357 27.889C262.579 75.2491 258.506 170.925 220.031 210.939Z" fill="url(#paint0_linear_428_600)"/>
    <path d="M125.647 235.959C125.647 235.959 174.366 112.884 246.741 99.4389C248.025 99.2003 249.195 100.227 249.132 101.532C248.401 116.713 239.13 197.058 125.647 235.959Z" fill="#A37EC4"/>
    <path opacity="0.62" d="M233.738 119.402C230.042 124.676 226.17 129.811 222.244 134.908C221.264 136.183 220.262 137.441 219.272 138.708C218.274 139.969 217.297 141.247 216.282 142.494L213.247 146.245C212.231 147.492 211.236 148.756 210.195 149.982C208.127 152.445 206.079 154.926 203.995 157.375L197.677 164.67C193.391 169.467 189.107 174.268 184.69 178.946L181.402 182.478C180.319 183.668 179.171 184.796 178.059 185.958L171.348 192.897L164.464 199.667C163.314 200.792 162.176 201.93 161.003 203.032L157.452 206.304C155.081 208.48 152.733 210.683 150.321 212.814L142.988 219.098L141.147 220.658C140.528 221.172 139.926 221.707 139.293 222.204L135.505 225.198C134.246 226.2 132.969 227.18 131.702 228.172C130.434 229.161 129.164 230.149 127.887 231.126C127.789 231.201 127.649 231.182 127.574 231.085C127.502 230.99 127.517 230.857 127.605 230.78L127.612 230.775C128.832 229.728 130.06 228.691 131.289 227.656C132.519 226.622 133.74 225.578 134.979 224.555L138.683 221.476C139.904 220.433 141.088 219.346 142.3 218.292L149.554 211.952L156.659 205.445L160.214 202.194C160.808 201.654 161.373 201.084 161.956 200.531L163.699 198.868L170.669 192.214C175.202 187.662 179.811 183.181 184.189 178.474C186.4 176.143 188.637 173.835 190.773 171.433C192.927 169.048 195.1 166.681 197.238 164.282L203.578 157.019C205.669 154.579 207.725 152.109 209.801 149.655C210.846 148.434 211.845 147.175 212.865 145.934L215.911 142.198C216.931 140.955 217.911 139.682 218.913 138.426C219.907 137.163 220.913 135.91 221.898 134.64C225.82 129.55 229.687 124.409 233.37 119.15L233.373 119.146C233.443 119.045 233.582 119.02 233.683 119.091C233.784 119.162 233.808 119.301 233.738 119.402L233.738 119.402Z" fill="white"/>
    <g opacity="0.79">
        <path d="M113.841 165.374C113.841 165.374 137.525 56.6921 209.022 0.353842C209.954 -0.380724 211.334 0.0838533 211.619 1.2361C216.116 19.4347 239.532 135.511 113.841 165.374Z" fill="#C4AAE1"/>
        <path opacity="0.62" d="M201.431 31.7068C200.61 34.8596 199.655 37.9657 198.647 41.0578C197.637 44.1482 196.576 47.2225 195.449 50.2727C193.187 56.3701 190.725 62.394 188.07 68.3332C187.412 69.8203 186.718 71.2911 186.043 72.7712C185.365 74.2493 184.631 75.7015 183.928 77.1682C183.23 78.6373 182.475 80.0784 181.742 81.5306L180.634 83.7041L179.486 85.8576C176.43 91.6012 173.21 97.2622 169.741 102.77C166.26 108.268 162.643 113.686 158.741 118.897C158.258 119.552 157.784 120.213 157.293 120.862L155.796 122.791L154.299 124.718C153.797 125.359 153.31 126.011 152.784 126.632L149.675 130.397L148.895 131.335L148.086 132.249L146.469 134.078C137.888 143.869 128.283 152.757 117.898 160.581C117.812 160.646 117.69 160.628 117.626 160.543C117.563 160.459 117.578 160.341 117.658 160.276L117.662 160.272L121.433 157.197L123.321 155.665L125.148 154.06L128.798 150.847L132.327 147.503C132.911 146.941 133.513 146.399 134.088 145.828L135.797 144.1C136.931 142.942 138.088 141.808 139.202 140.632C141.392 138.243 143.633 135.902 145.717 133.419L147.306 131.581L148.101 130.663L148.867 129.72L151.942 125.956C152.463 125.336 152.945 124.685 153.442 124.046L154.925 122.121L156.408 120.197C156.894 119.549 157.364 118.888 157.842 118.235C161.707 113.033 165.288 107.626 168.733 102.139C172.197 96.6616 175.433 91.0413 178.497 85.3294L179.648 83.1885L180.76 81.0269C181.496 79.5832 182.254 78.1502 182.955 76.6886C184.394 73.784 185.783 70.8551 187.15 67.9155C189.864 62.0269 192.385 56.0485 194.713 49.9953C195.895 46.9748 197.01 43.929 198.075 40.8654C198.609 39.3343 199.124 37.7963 199.621 36.253C200.126 34.7126 200.609 33.1622 201.055 31.608L201.056 31.6042C201.086 31.5012 201.193 31.4416 201.296 31.4712C201.398 31.5005 201.457 31.6053 201.431 31.7068Z" fill="white"/>
    </g>
    <g opacity="0.76">
        <path d="M76.6855 159.541C76.6855 159.541 67.4494 63.1306 11.4631 7.02905C10.7331 6.2976 9.49225 6.55653 9.12691 7.52326C3.35653 22.7919 -28.8923 120.724 76.6855 159.541Z" fill="#C4AAE1"/>
        <path opacity="0.62" d="M15.1436 34.8705C16.0993 40.4293 17.3356 45.9498 18.7491 51.4144C20.1403 56.8863 21.7062 62.3131 23.4476 67.6822C24.3284 70.3632 25.2275 73.038 26.1711 75.6971C26.6265 77.0327 27.1335 78.3493 27.6204 79.6735L28.359 81.6564L29.1333 83.6256C31.1917 88.8784 33.4102 94.0699 35.8376 99.1614C38.2463 104.26 40.7808 109.305 43.5822 114.201C43.9282 114.815 44.2652 115.434 44.6182 116.045L45.7004 117.862L46.7827 119.679C47.1461 120.283 47.4954 120.896 47.8816 121.485L50.1482 125.057L50.7124 125.951L51.3033 126.828L52.4854 128.581C54.0282 130.944 55.7211 133.2 57.3647 135.493C58.2047 136.625 59.0868 137.726 59.946 138.844L61.243 140.516C61.6807 141.069 62.1445 141.6 62.5902 142.147L65.2902 145.406L68.1088 148.564L69.5201 150.142L70.9914 151.664L73.9273 154.717L73.9308 154.721C74.0052 154.798 74.0028 154.921 73.9255 154.996C73.8502 155.068 73.7316 155.067 73.6568 154.996C65.4712 147.171 58.0759 138.497 51.6607 129.147L50.4498 127.399L49.8442 126.525L49.2656 125.633L46.9648 122.057C46.5739 121.465 46.2201 120.851 45.8522 120.245L44.7564 118.423L43.6606 116.601C43.3031 115.989 42.9617 115.368 42.6114 114.752C39.7744 109.842 37.2054 104.783 34.7628 99.668C32.3326 94.5458 30.1356 89.3164 28.0883 84.0324L27.3194 82.0512L26.5861 80.0566C26.103 78.7249 25.5996 77.4004 25.148 76.0576C24.6919 74.7163 24.2085 73.3845 23.7746 72.0359C23.3457 70.6858 22.8985 69.3415 22.4844 67.9871C19.1561 57.1591 16.3907 46.1435 14.7589 34.9239C14.7435 34.818 14.8169 34.7194 14.9231 34.7039C15.0275 34.6888 15.1245 34.7595 15.1423 34.8628L15.1436 34.8705Z" fill="white"/>
    </g>
    <path d="M27.0386 12.7627C26.2368 50.596 23.6367 181.097 24.878 227.343C25.0095 232.242 28.3666 236.174 32.5546 236.335C53.2674 237.128 129.199 239.137 163.078 237.475C170.135 237.128 175.746 230.442 175.893 222.181C176.597 182.47 178.15 70.7787 174.458 19.6128C174.016 13.4824 169.903 8.60053 164.67 7.988C142.113 5.34814 65.8545 -1.10482 36.5849 1.11728C31.306 1.51803 27.1697 6.5763 27.0386 12.7627Z" fill="#412668"/>
    <path d="M36.2804 24.3703C35.1656 54.9075 31.6489 156.497 32.765 194.063C32.9281 199.553 36.6273 203.993 41.3157 204.314C60.619 205.636 126.477 208.549 154.79 205.897C159.888 205.42 163.889 200.596 164.164 194.621C165.599 163.467 169.719 68.8732 168.649 31.7284C168.478 25.8028 164.555 20.9635 159.507 20.4334C138.624 18.2399 68.6419 13.0208 44.5823 14.5564C40.0658 14.8447 36.4735 19.0837 36.2804 24.3703Z" fill="#FED6AD"/>
    <path d="M88.0597 8.62192C88.0597 9.7828 88.833 10.7403 89.8239 10.8008C94.7161 11.1005 108.498 11.9486 114.657 12.3666C115.871 12.4491 116.825 11.172 116.594 9.77477L116.555 9.5363C116.398 8.58288 115.722 7.86524 114.895 7.77663C110.732 7.33028 98.1694 6.09278 89.846 6.44042C88.8462 6.48231 88.0597 7.45154 88.0597 8.62192Z" fill="#B699D2"/>
    <path d="M97.6861 88.4178C113.642 88.4178 126.577 75.483 126.577 59.527C126.577 43.5711 113.642 30.6362 97.6861 30.6362C81.7301 30.6362 68.7953 43.5711 68.7953 59.527C68.7953 75.483 81.7301 88.4178 97.6861 88.4178Z" fill="url(#paint1_linear_428_600)"/>
    <path d="M106.531 48.61C106.531 53.502 102.566 58.7832 97.6738 58.7832C92.7819 58.7832 88.8162 53.502 88.8162 48.61C88.8162 43.7181 92.7819 40.2476 97.6738 40.2476C102.566 40.2476 106.531 43.7181 106.531 48.61Z" fill="white"/>
    <path d="M86.6816 77.6176H108.305C110.581 77.6176 112.596 76.1465 113.29 73.9786L114.453 70.3419C115.305 67.6792 113.92 64.7963 111.294 63.8363C102.494 60.6188 93.3953 61.0317 84.0741 64.1332C81.4628 65.0021 80.0137 67.7953 80.7343 70.4513L81.6303 73.754C82.2489 76.0344 84.3187 77.6176 86.6816 77.6176Z" fill="white"/>
    <g opacity="0.71">
        <path opacity="0.65" d="M153.098 134.557H47.6575C47.3355 134.557 47.0745 134.296 47.0745 133.974V118.739C47.0745 118.417 47.3355 118.156 47.6575 118.156H153.098C153.42 118.156 153.681 118.417 153.681 118.739V133.974C153.681 134.296 153.42 134.557 153.098 134.557Z" fill="white"/>
        <path opacity="0.65" d="M152.523 161.317H47.0821C46.7602 161.317 46.4991 161.056 46.4991 160.734V145.499C46.4991 145.177 46.7602 144.916 47.0821 144.916H152.523C152.845 144.916 153.106 145.177 153.106 145.499V160.734C153.106 161.056 152.845 161.317 152.523 161.317Z" fill="white"/>
        <path opacity="0.65" d="M131.936 193.233H64.5067C64.1094 193.233 63.7871 192.911 63.7871 192.513V173.043C63.7871 172.645 64.1093 172.323 64.5067 172.323H131.936C132.334 172.323 132.656 172.645 132.656 173.043V192.513C132.656 192.911 132.334 193.233 131.936 193.233Z" fill="white"/>
    </g>
    <path opacity="0.75" d="M114.258 130.983H52.8333C52.261 130.983 51.797 130.519 51.797 129.946V122.907C51.797 122.335 52.261 121.871 52.8333 121.871H114.258C114.83 121.871 115.294 122.335 115.294 122.907V129.946C115.294 130.519 114.83 130.983 114.258 130.983Z" fill="white"/>
    <g opacity="0.75">
        <path d="M55.439 156.118C57.3477 155.327 58.2541 153.139 57.4635 151.23C56.6728 149.322 54.4845 148.415 52.5758 149.206C50.667 149.997 49.7606 152.185 50.5512 154.094C51.3419 156.002 53.5302 156.909 55.439 156.118Z" fill="white"/>
        <path d="M64.2663 156.592C66.3323 156.592 68.0071 154.917 68.0071 152.851C68.0071 150.785 66.3323 149.111 64.2663 149.111C62.2003 149.111 60.5255 150.785 60.5255 152.851C60.5255 154.917 62.2003 156.592 64.2663 156.592Z" fill="white"/>
        <path d="M77.781 154.205C78.2558 152.194 77.0107 150.18 75.0001 149.705C72.9895 149.23 70.9747 150.475 70.4999 152.486C70.0251 154.496 71.2702 156.511 73.2808 156.986C75.2914 157.461 77.3062 156.216 77.781 154.205Z" fill="white"/>
        <path d="M84.4085 157.264C86.4745 157.264 88.1493 155.589 88.1493 153.523C88.1493 151.457 86.4745 149.782 84.4085 149.782C82.3425 149.782 80.6677 151.457 80.6677 153.523C80.6677 155.589 82.3425 157.264 84.4085 157.264Z" fill="white"/>
        <path d="M94.671 157.167C96.737 157.167 98.4118 155.493 98.4118 153.427C98.4118 151.361 96.737 149.686 94.671 149.686C92.605 149.686 90.9302 151.361 90.9302 153.427C90.9302 155.493 92.605 157.167 94.671 157.167Z" fill="white"/>
        <path d="M104.935 157.36C107.001 157.36 108.676 155.685 108.676 153.619C108.676 151.553 107.001 149.878 104.935 149.878C102.869 149.878 101.194 151.553 101.194 153.619C101.194 155.685 102.869 157.36 104.935 157.36Z" fill="white"/>
    </g>
    <path d="M147.652 165.83L159.112 168.695L156.247 190.183C156.247 190.183 160.545 194.48 161.977 200.21C163.41 205.94 164.731 230 164.731 230L167.45 231.644L167.781 233.016L159.869 243.654L161.181 235.187C161.39 233.843 161.029 231.118 161.142 231.061C156.845 219.6 147.652 187.318 147.652 187.318V165.83Z" fill="url(#paint2_linear_428_600)"/>
    <path d="M144.304 233.164C144.428 233.161 144.55 233.171 144.674 233.164C144.121 226.255 141.59 195.849 139.057 184.452C136.192 171.56 143.355 145.774 143.355 145.774L156.247 158.667L149.085 183.02C153.993 190.383 148.284 233.5 148.407 233.482L148.399 233.578L150.268 236.147L150.041 237.541L138.624 244.278L143.116 236.983C143.829 235.825 144.223 234.512 144.304 233.164Z" fill="url(#paint3_linear_428_600)"/>
    <path d="M158.805 88.5945C158.805 88.5945 183.907 116.886 158.805 131.392L156.247 129.54C156.247 129.54 168.71 117.606 156.247 102.997L158.805 88.5945Z" fill="url(#paint4_linear_428_600)"/>
    <path d="M137.872 245.334H141.515C142.197 245.334 142.84 245.021 143.256 244.481C144.392 243.005 146.745 240.126 147.871 240.051C149.385 239.949 149.192 245.334 149.192 245.334H150.041L151.116 238.643C151.387 236.959 150.55 235.291 149.038 234.502C149.038 234.502 148.691 237.063 146.814 238.196C144.936 239.328 139.173 243.385 139.173 243.385C139.173 243.385 138.467 243.284 137.692 243.424C136.543 243.632 136.703 245.334 137.872 245.334Z" fill="#62398C"/>
    <path d="M159.586 244.919L162.944 243.506C163.573 243.242 164.045 242.704 164.218 242.045C164.693 240.244 165.746 236.677 166.754 236.171C168.111 235.491 170.02 240.53 170.02 240.53L170.803 240.2L169.199 233.615C168.796 231.958 167.377 230.746 165.678 230.605C165.678 230.605 166.352 233.099 165.06 234.872C163.769 236.644 160.03 242.618 160.03 242.618C160.03 242.618 159.34 242.799 158.68 243.228C157.701 243.865 158.509 245.372 159.586 244.919Z" fill="#62398C"/>
    <path d="M140.071 123.974C140.071 123.974 140.492 126.557 139.875 133.655C139.258 140.754 136.307 157.42 136.908 173.366C136.908 173.366 145.296 175.321 159.869 174.395C159.869 174.395 166.019 149.498 164.521 140.034C163.023 130.569 154.895 123.779 154.895 123.779L140.071 123.974Z" fill="#744BA0"/>
    <path d="M146.269 76.5398L145.244 88.5947H154.984L152.562 70.1936L146.269 76.5398Z" fill="url(#paint5_linear_428_600)"/>
    <path d="M157.869 86.9276C154.508 86.7422 146.992 86.3992 141.668 86.6893C138.865 86.842 136.516 88.8533 135.943 91.6016L134.644 97.825C134.16 100.143 134.233 102.543 134.855 104.827L140.071 123.975C140.071 123.975 144.711 126.763 154.896 123.779C154.896 123.779 163.84 102.45 160.179 88.8051C159.894 87.7453 158.965 86.988 157.869 86.9276Z" fill="#FFB111"/>
    <path d="M136.197 90.4853C134.763 94.2647 133.467 98.2276 132.075 101.939C131.367 103.797 130.649 105.618 129.881 107.29C129.492 108.123 129.065 108.888 128.674 109.582C128.282 110.269 127.84 110.841 127.61 111.104C127.565 111.142 127.716 111.172 127.766 111.175C127.797 111.179 126.797 111.339 126.49 111.39L125.291 111.383C123.572 111.295 121.626 110.992 119.673 110.612C115.735 109.878 111.641 108.847 107.437 108.067L107.404 108.061C106.6 107.912 105.827 108.443 105.678 109.248C105.579 109.778 105.779 110.296 106.155 110.63C107.85 112.122 109.647 113.348 111.511 114.541C112.449 115.115 113.404 115.677 114.374 116.217C115.363 116.721 116.356 117.229 117.386 117.699C119.461 118.603 121.604 119.436 124.073 119.971C124.722 120.08 125.363 120.194 126.03 120.283C126.779 120.309 127.459 120.375 128.277 120.328C128.711 120.285 129.148 120.232 129.583 120.168C129.815 120.128 129.986 120.123 130.267 120.046C130.565 119.956 130.863 119.856 131.156 119.746C131.769 119.526 132.166 119.259 132.664 118.982C133.077 118.71 133.454 118.424 133.82 118.132C135.17 116.982 136.008 115.841 136.747 114.746C137.484 113.651 138.068 112.554 138.592 111.479C139.643 109.332 140.464 107.205 141.131 105.063C142.481 100.77 143.395 96.5518 143.781 92.0705C143.966 89.9241 142.376 88.0343 140.23 87.8494C138.453 87.6962 136.852 88.7593 136.249 90.3471L136.197 90.4853Z" fill="url(#paint6_linear_428_600)"/>
    <path d="M108.76 109.993L107.022 105.868L97.8737 103.588C97.8737 103.588 97.1419 105.174 100.984 105.868C100.984 105.868 99.6117 107.384 100.344 109.168C101.076 110.952 108.851 112.739 108.76 109.993Z" fill="url(#paint7_linear_428_600)"/>
    <path d="M142.145 62.6173C141.797 62.8225 139.057 72.4873 141.353 76.5395C143.65 80.5917 150.662 76.053 152.562 70.1933C154.463 64.3338 151.409 57.1537 142.145 62.6173Z" fill="url(#paint8_linear_428_600)"/>
    <path d="M160.32 70.1935C161.892 77.8996 167.104 75.7907 170.795 79.2191C176.777 84.7758 185.335 79.0476 193.655 84.3134C199.662 88.1149 202.555 97.8405 199.673 105.693C195.681 116.568 182.038 121.041 174.968 117.728C168.211 114.563 169.173 105.081 160.082 101.417C156.222 99.8611 154.317 100.872 152.005 98.5663C147.959 94.53 149.051 86.6974 149.472 83.68C150.384 77.1325 152.58 75.9471 151.53 73.0695C149.49 67.4726 139.971 68.6274 139.178 64.6762C138.456 61.0781 145.355 54.258 151.847 55.3328C161.892 56.9954 159.619 66.7602 160.32 70.1935Z" fill="url(#paint9_linear_428_600)"/>
    <path opacity="0.6" d="M196.673 103.851C196.792 103.851 196.9 103.77 196.929 103.649C198.215 98.3102 197.632 93.9314 195.194 90.6343C191.149 85.1626 183.286 84.6213 183.207 84.6165C183.084 84.596 182.938 84.7178 182.929 84.8632C182.92 85.008 183.03 85.1328 183.175 85.1415C183.252 85.1461 190.876 85.6752 194.773 90.9502C197.112 94.1157 197.666 98.3471 196.417 103.526C196.384 103.667 196.47 103.81 196.612 103.843C196.632 103.848 196.653 103.851 196.673 103.851Z" fill="white"/>
    <path opacity="0.72" d="M170.923 108.739C170.934 108.739 170.945 108.737 170.956 108.734C171.026 108.716 171.068 108.644 171.05 108.574C169.797 103.767 167.599 100.429 164.517 98.6514C162.275 97.358 160.175 97.2377 158.323 97.1315C156.537 97.0287 154.995 96.9399 153.753 95.8361C151.187 93.554 151.336 88.0674 154.195 79.5283C154.218 79.4594 154.181 79.385 154.112 79.3618C154.043 79.3387 153.969 79.3762 153.946 79.4451C151.05 88.0931 150.926 93.6738 153.579 96.0324C154.889 97.1973 156.473 97.2888 158.308 97.3941C160.131 97.4988 162.198 97.6175 164.386 98.8795C167.404 100.62 169.561 103.904 170.795 108.641C170.811 108.7 170.864 108.739 170.923 108.739Z" fill="white"/>
    <path opacity="0.72" d="M156.598 68.2809C156.612 68.2809 156.626 68.279 156.641 68.2743C156.709 68.2512 156.746 68.1762 156.723 68.1073C155.727 65.1446 152.858 65.5849 149.818 66.0523C147.894 66.3482 145.905 66.6527 144.217 66.1535C142.958 65.7801 142.21 65.2018 141.994 64.4338C141.625 63.1266 142.918 61.6689 142.931 61.654C142.98 61.6001 142.975 61.5169 142.921 61.4686C142.868 61.4199 142.784 61.4245 142.736 61.4784C142.678 61.5421 141.333 63.0568 141.741 64.5048C141.983 65.3651 142.791 66.0046 144.142 66.4053C145.887 66.922 147.905 66.6122 149.858 66.3123C152.91 65.8439 155.548 65.4376 156.474 68.1917C156.492 68.2466 156.543 68.2809 156.598 68.2809Z" fill="white"/>
    <path d="M185.59 38.3528C185.59 24.7904 197.078 13.7973 210.865 13.7991C224.244 13.8007 234.803 24.2149 234.803 37.0598C234.803 49.9048 224.244 60.8738 210.865 61.5785C197.078 62.3046 185.59 51.9152 185.59 38.3528Z" fill="url(#paint10_linear_428_600)"/>
    <path d="M187.896 38.2922C187.896 26.0008 198.308 16.0381 210.802 16.0396C222.928 16.0411 232.497 25.4792 232.497 37.1204C232.497 48.7615 222.928 58.7025 210.802 59.3411C198.308 59.9993 187.896 50.5835 187.896 38.2922Z" fill="url(#paint11_linear_428_600)"/>
    <path d="M203.381 36.8983H201.328V28.7176C201.328 25.5045 203.734 22.7892 206.923 22.4015L211.121 21.8914C212.927 21.6718 214.745 22.238 216.107 23.4448C217.469 24.6516 218.251 26.3875 218.251 28.2075V35.3494H216.198V28.2075C216.198 26.9748 215.669 25.7989 214.746 24.9815C213.823 24.1641 212.592 23.7805 211.368 23.9293L207.171 24.4394C205.011 24.7019 203.381 26.5411 203.381 28.7176L203.381 36.8983Z" fill="white"/>
    <path d="M200.721 35.0617L218.716 34.0647C219.447 34.0242 220.062 34.606 220.062 35.338V49.5938C220.062 50.2981 219.491 50.869 218.787 50.869H201.224C200.536 50.869 199.972 50.323 199.95 49.6354L199.517 36.3765C199.495 35.6838 200.029 35.1 200.721 35.0617Z" fill="white"/>
    <path d="M212.723 46.7851L211.634 43.6538C211.503 43.2774 211.592 42.8565 211.872 42.5728C212.43 42.0072 212.763 41.2186 212.723 40.3525C212.654 38.8251 211.406 37.5866 209.878 37.5279C208.187 37.4629 206.796 38.8144 206.796 40.4908C206.796 41.4209 207.225 42.2505 207.895 42.794C208.242 43.0759 208.385 43.5392 208.238 43.9618L207.256 46.7852C207.017 47.4719 207.527 48.189 208.254 48.189H211.725C212.452 48.1889 212.962 47.4718 212.723 46.7851Z" fill="url(#paint12_linear_428_600)"/>
    <g opacity="0.3">
        <path d="M61.1306 218.956C61.3478 219.415 61.2046 219.981 60.7841 220.26C59.8646 220.872 58.9058 221.451 57.9349 221.98C57.4624 222.238 56.8797 222.044 56.6333 221.548C56.6304 221.542 56.6277 221.536 56.6249 221.53C56.3914 221.037 56.5756 220.436 57.0423 220.182C57.9648 219.679 58.8754 219.129 59.749 218.548C60.1984 218.249 60.7948 218.39 61.0806 218.863C61.0992 218.893 61.1156 218.924 61.1306 218.956ZM53.5799 222.811C53.5966 222.847 53.6118 222.884 53.6248 222.922C53.8045 223.449 53.5437 224.029 53.0422 224.216C52.012 224.601 50.9559 224.944 49.9033 225.234C49.3882 225.376 48.8622 225.054 48.7234 224.512C48.587 223.97 48.894 223.417 49.4086 223.275C50.4092 222.999 51.4125 222.673 52.3915 222.307C52.8565 222.133 53.3651 222.358 53.5799 222.811ZM45.4048 224.823C45.4527 224.924 45.4851 225.035 45.4988 225.153C45.5621 225.709 45.185 226.213 44.6561 226.278C43.572 226.412 42.4685 226.499 41.3765 226.535C40.8439 226.552 40.3984 226.112 40.3799 225.554C40.362 224.994 40.7792 224.527 41.3116 224.509C42.3486 224.475 43.3961 224.393 44.4257 224.266C44.842 224.214 45.2282 224.449 45.4048 224.823ZM37.0007 224.862C37.0798 225.029 37.1159 225.221 37.0958 225.42C37.0396 225.976 36.5643 226.378 36.0347 226.318C34.948 226.194 33.8533 226.019 32.781 225.798C32.2585 225.69 31.9167 225.158 32.0175 224.608C32.1188 224.06 32.625 223.702 33.1481 223.809C34.1663 224.019 35.2061 224.186 36.2388 224.303C36.5789 224.342 36.8587 224.562 37.0007 224.862ZM28.7948 222.933C28.9057 223.167 28.9308 223.446 28.8439 223.712C28.6714 224.241 28.123 224.522 27.6191 224.339C26.5877 223.966 25.5568 223.541 24.5557 223.076C24.0678 222.85 23.846 222.252 24.0606 221.74C24.275 221.229 24.844 220.997 25.3319 221.223C26.2836 221.666 27.2634 222.069 28.2435 222.424C28.4936 222.515 28.6857 222.702 28.7948 222.933ZM21.1959 219.146C21.3395 219.449 21.3356 219.821 21.1539 220.13C20.874 220.605 20.28 220.752 19.8265 220.457C18.8972 219.853 17.9807 219.199 17.1032 218.514C16.675 218.179 16.5853 217.545 16.9026 217.096C17.2195 216.647 17.8237 216.554 18.2518 216.889C19.0858 217.54 19.9562 218.161 20.8391 218.735C20.9982 218.838 21.1184 218.982 21.1959 219.146ZM3.38978 186.94C3.44929 187.066 3.4847 187.207 3.48971 187.356C3.52624 188.444 3.60855 189.545 3.73457 190.628C3.79908 191.184 3.42277 191.688 2.8942 191.754C2.36536 191.821 1.88429 191.424 1.81968 190.869C1.68702 189.728 1.60013 188.568 1.56153 187.423C1.5427 186.863 1.95917 186.395 2.49155 186.377C2.88202 186.363 3.22646 186.595 3.38978 186.94ZM14.5853 213.69C14.7637 214.066 14.7056 214.535 14.4094 214.851C14.0358 215.249 13.4251 215.253 13.0452 214.86C12.2665 214.054 11.5117 213.203 10.8017 212.33C10.4573 211.902 10.5022 211.264 10.9071 210.901C11.3118 210.539 11.9208 210.59 12.2675 211.016C12.9416 211.845 13.6584 212.653 14.3977 213.419C14.4761 213.5 14.539 213.592 14.5853 213.69ZM4.63142 195.672C4.65975 195.732 4.68324 195.796 4.70026 195.863C4.96783 196.916 5.28255 197.971 5.63485 198.998C5.81536 199.525 5.55548 200.105 5.05445 200.293C4.55334 200.482 3.99842 200.209 3.81981 199.681C3.44929 198.6 3.11815 197.49 2.83624 196.382C2.69875 195.841 3.00449 195.286 3.51907 195.143C3.96975 195.018 4.4313 195.249 4.63142 195.672ZM9.29723 206.823C9.51419 207.281 9.37169 207.846 8.95228 208.126C8.50316 208.426 7.90687 208.286 7.61986 207.814C7.03299 206.847 6.4779 205.84 5.97057 204.822C5.9672 204.815 5.96409 204.809 5.96107 204.802C5.72787 204.31 5.91123 203.71 6.37685 203.455C6.84885 203.197 7.43184 203.389 7.67903 203.885C8.16122 204.853 8.68859 205.809 9.24628 206.728C9.26493 206.759 9.28203 206.79 9.29723 206.823Z" fill="url(#paint13_linear_428_600)"/>
        <path d="M3.76402 179.838C3.84866 180.017 3.88424 180.224 3.85453 180.436C3.78215 180.953 3.71911 181.479 3.66633 182.002C3.61054 182.558 3.1356 182.961 2.6059 182.9C2.07602 182.841 1.69117 182.341 1.748 181.784C1.8031 181.235 1.8696 180.681 1.94561 180.137C2.023 179.584 2.51314 179.202 3.03999 179.284C3.36508 179.335 3.62807 179.551 3.76402 179.838Z" fill="url(#paint14_linear_428_600)"/>
    </g>
    <g opacity="0.3">
        <path d="M19.0602 153.495C19.2676 153.933 19.1479 154.476 18.7572 154.769C18.3526 155.072 17.9473 155.389 17.5528 155.71C17.1324 156.053 16.5264 155.973 16.1989 155.531C15.8701 155.087 15.9468 154.452 16.3669 154.109C16.7824 153.77 17.2093 153.437 17.6352 153.118C18.0686 152.793 18.671 152.9 18.981 153.356C19.0114 153.401 19.0376 153.448 19.0602 153.495Z" fill="url(#paint15_linear_428_600)"/>
        <path d="M74.5501 168.098C74.7479 168.515 74.9396 168.938 75.1254 169.366C75.3464 169.876 75.1329 170.476 74.6483 170.708C74.1637 170.939 73.5885 170.711 73.37 170.203C72.9413 169.216 72.4755 168.249 71.9796 167.318C71.7197 166.829 71.8846 166.213 72.3492 165.94C72.8142 165.668 73.4021 165.843 73.6625 166.332C73.9694 166.907 74.268 167.501 74.5501 168.098ZM76.9184 174.377C76.9424 174.428 76.9627 174.482 76.9789 174.538C77.2894 175.621 77.5595 176.73 77.7817 177.834C77.8921 178.381 77.559 178.918 77.0381 179.033C76.5168 179.147 76.0032 178.796 75.8946 178.248C75.6834 177.2 75.4265 176.147 75.1319 175.117C74.9782 174.581 75.2672 174.017 75.777 173.857C76.2338 173.713 76.7127 173.943 76.9184 174.377ZM70.8796 161.866C71.0822 162.294 70.9735 162.826 70.5978 163.123C70.1728 163.46 69.568 163.371 69.2463 162.924C68.6313 162.069 67.9732 161.23 67.2894 160.43C66.9337 160.012 66.9654 159.372 67.3613 158.999C67.7577 158.626 68.3676 158.661 68.7239 159.078C69.4438 159.921 70.137 160.804 70.7847 161.705C70.8217 161.756 70.8532 161.81 70.8796 161.866ZM78.4171 182.925C78.4717 183.04 78.5058 183.168 78.5151 183.304C78.5914 184.431 78.6228 185.575 78.6084 186.703C78.6012 187.263 78.1637 187.709 77.6311 187.7C77.0981 187.691 76.6722 187.231 76.6796 186.671C76.6932 185.599 76.6635 184.513 76.5909 183.443C76.5528 182.885 76.9532 182.401 77.4845 182.363C77.8861 182.334 78.248 182.568 78.4171 182.925ZM65.1926 155.553C65.3589 155.905 65.3223 156.341 65.0662 156.659C64.7225 157.085 64.1139 157.138 63.7067 156.776C62.9286 156.084 62.1109 155.417 61.277 154.794C60.8425 154.469 60.7398 153.836 61.0483 153.381C61.3566 152.925 61.9584 152.819 62.3929 153.144C63.271 153.8 64.1317 154.502 64.9512 155.231C65.0549 155.323 65.1357 155.433 65.1926 155.553ZM58.3273 150.701C58.4603 150.982 58.4678 151.323 58.3196 151.621C58.0732 152.117 57.4906 152.308 57.0182 152.048C56.1122 151.55 55.1758 151.085 54.2351 150.668C53.7435 150.451 53.5123 149.857 53.7186 149.341C53.9249 148.825 54.4901 148.584 54.9815 148.802C55.9716 149.241 56.9569 149.729 57.9102 150.254C58.0977 150.357 58.2397 150.516 58.3273 150.701ZM50.6218 147.533C50.7228 147.747 50.7532 147.998 50.6898 148.246C50.5524 148.786 50.0236 149.106 49.5089 148.96C48.5209 148.68 47.5114 148.441 46.5076 148.249C45.9834 148.149 45.6344 147.622 45.7287 147.071C45.823 146.521 46.3242 146.156 46.8488 146.256C47.905 146.458 48.9678 146.709 50.0073 147.004C50.2855 147.083 50.5028 147.282 50.6218 147.533ZM42.4464 146.204C42.5164 146.352 42.5529 146.52 42.5461 146.697C42.5244 147.256 42.0754 147.689 41.5432 147.665C40.522 147.618 39.4877 147.617 38.4687 147.662C37.9365 147.685 37.4859 147.25 37.4626 146.692C37.4391 146.132 37.8518 145.66 38.384 145.637C39.4574 145.591 40.5467 145.592 41.6216 145.64C41.986 145.657 42.2947 145.884 42.4464 146.204ZM34.1938 146.792C34.2332 146.876 34.2622 146.966 34.2789 147.062C34.3751 147.612 34.0282 148.14 33.5044 148.239C32.5016 148.43 31.4936 148.668 30.5077 148.947C29.9936 149.093 29.4634 148.771 29.3237 148.233C29.1836 147.693 29.487 147.137 30.0012 146.991C31.039 146.697 32.1003 146.446 33.1559 146.245C33.5886 146.163 34.0071 146.398 34.1938 146.792ZM26.2756 149.269C26.2844 149.288 26.2926 149.307 26.3005 149.326C26.5084 149.842 26.2793 150.436 25.7889 150.653C25.0964 150.959 24.4051 151.292 23.7332 151.641C23.49 151.768 23.2486 151.897 23.0093 152.029C22.5374 152.287 21.9542 152.095 21.7067 151.599C21.4467 151.102 21.6406 150.491 22.112 150.232C22.3639 150.094 22.6175 149.958 22.8735 149.825C23.5802 149.458 24.3079 149.108 25.0361 148.785C25.508 148.576 26.0501 148.793 26.2756 149.269Z" fill="url(#paint16_linear_428_600)"/>
        <path d="M78.0836 191.628C78.1691 191.809 78.2043 192.017 78.1736 192.231C78.0952 192.773 78.0043 193.324 77.9035 193.868C77.8019 194.417 77.2955 194.774 76.7726 194.666C76.2496 194.558 75.9079 194.026 76.0098 193.476C76.1054 192.96 76.1917 192.437 76.2663 191.922C76.346 191.369 76.8379 190.99 77.3647 191.075C77.6874 191.128 77.9484 191.343 78.0836 191.628Z" fill="url(#paint17_linear_428_600)"/>
    </g>
    <path d="M67.4873 195.614C67.5665 195.43 67.5259 195.214 67.386 195.075L63.3958 191.108C63.8909 188.469 63.9887 185.727 63.6449 182.98L67.8637 179.311C68.0118 179.183 68.0654 178.969 67.9975 178.78L65.6736 172.307C65.6056 172.117 65.431 171.994 65.2388 171.999L59.7575 172.152C58.2881 169.848 56.4895 167.853 54.4566 166.209L54.9633 160.472C54.981 160.27 54.8753 160.079 54.7001 159.996L48.7026 157.133C48.5272 157.05 48.321 157.092 48.189 157.239L44.4225 161.42C41.9083 160.894 39.2969 160.784 36.6824 161.139L33.1793 156.699C33.0565 156.543 32.8533 156.486 32.6733 156.557L26.5154 158.983C26.3355 159.054 26.2184 159.237 26.224 159.439L26.3819 165.196C24.1921 166.734 22.2965 168.618 20.7364 170.749L15.2726 170.203C15.0812 170.184 14.8995 170.295 14.8203 170.479L12.1094 176.771C12.0301 176.955 12.0709 177.172 12.2107 177.311L16.201 181.277C15.7057 183.916 15.608 186.659 15.952 189.406L11.7329 193.074C11.585 193.203 11.5313 193.416 11.5991 193.605L13.9232 200.079C13.991 200.268 14.1656 200.391 14.3579 200.386L19.8393 200.234C21.3086 202.537 23.1073 204.533 25.1402 206.176L24.6336 211.914C24.6157 212.115 24.7215 212.306 24.8967 212.39L30.8943 215.252C31.0695 215.336 31.2758 215.293 31.4078 215.147L35.1744 210.965C37.6886 211.492 40.2999 211.601 42.9145 211.246L46.4174 215.686C46.5402 215.842 46.7435 215.899 46.9235 215.828L53.0812 213.403C53.2612 213.332 53.3782 213.149 53.3727 212.947L53.2146 207.189C55.4044 205.652 57.3 203.767 58.8601 201.636L64.3238 202.182C64.5154 202.201 64.6969 202.09 64.7763 201.906L67.4873 195.614Z" fill="#FFB111"/>
    <path opacity="0.7" d="M45.7235 183.115C47.1605 186.151 46.3023 189.92 43.5785 191.905C40.5843 194.086 36.4532 193.299 34.3687 190.149C33.3586 188.623 32.9744 186.777 33.286 184.951C33.5975 183.125 34.5677 181.537 36.0182 180.481C39.0124 178.299 43.1435 179.087 45.228 182.236C45.4158 182.52 45.581 182.814 45.7235 183.115ZM35.2517 188.545C35.3627 188.78 35.4904 189.007 35.6353 189.226C37.2333 191.641 40.4012 192.245 42.6965 190.572C44.992 188.9 45.5607 185.574 43.9615 183.159C42.3635 180.744 39.1956 180.14 36.9003 181.813C35.7881 182.623 35.0442 183.84 34.8053 185.241C34.6113 186.379 34.7697 187.527 35.2517 188.545Z" fill="white"/>
    <path opacity="0.7" d="M54.2178 178.537C54.4646 179.059 54.6879 179.596 54.8862 180.148C54.9487 180.322 55.0083 180.497 55.0655 180.673C55.3468 181.54 55.5621 182.429 55.7081 183.326C55.7101 183.338 55.7121 183.351 55.7141 183.363C55.7197 183.398 55.7251 183.432 55.7303 183.467C55.7409 183.535 55.7507 183.603 55.7604 183.67C55.7859 183.849 55.6969 184.017 55.5512 184.093C55.5158 184.111 55.477 184.124 55.4359 184.13C55.2251 184.163 55.0293 184.01 54.9974 183.788C54.8352 182.649 54.5547 181.52 54.1642 180.433C52.2261 175.032 47.8339 171.337 42.8208 170.221C40.0326 169.6 37.0523 169.777 34.195 170.903C33.6939 171.1 33.2061 171.322 32.7332 171.569C29.5504 173.225 27.0304 175.959 25.5464 179.404C23.8415 183.361 23.7074 187.783 25.1689 191.853C28.188 200.26 37.1444 204.532 45.138 201.384C45.6309 201.19 46.1126 200.97 46.581 200.726C48.6112 199.669 50.3976 198.157 51.807 196.292C51.8434 196.244 51.8881 196.207 51.9374 196.181C52.067 196.114 52.2279 196.126 52.3489 196.227C52.5157 196.367 52.5447 196.621 52.4117 196.797C50.932 198.755 49.0565 200.343 46.9251 201.452C46.4334 201.708 45.9279 201.939 45.4106 202.143C37.018 205.449 27.6131 200.957 24.4467 192.138C22.9123 187.864 23.0532 183.223 24.843 179.069C26.4009 175.452 29.0465 172.582 32.3877 170.843C32.8843 170.584 33.3964 170.351 33.9222 170.144C37.9878 168.542 42.4073 168.701 46.3668 170.591C49.8147 172.236 52.5543 175.023 54.2178 178.537Z" fill="white"/>
    <g opacity="0.3">
        <path d="M98.5553 238.104C98.6702 238.347 98.6254 238.649 98.4265 238.842C98.0556 239.202 97.6692 239.555 97.2779 239.892C97.0237 240.11 96.6486 240.07 96.4394 239.803C96.2293 239.536 96.2677 239.141 96.5218 238.922C96.8946 238.602 97.263 238.265 97.6171 237.922C97.8581 237.687 98.2351 237.703 98.459 237.957C98.4987 238.003 98.5305 238.052 98.5553 238.104Z" fill="url(#paint18_linear_428_600)"/>
        <path d="M94.922 241.029C95.0566 241.313 94.9672 241.664 94.7066 241.836C93.9704 242.323 93.2018 242.775 92.4226 243.18C92.2585 243.266 92.093 243.349 91.9262 243.432C91.6282 243.578 91.2767 243.421 91.1328 243.131C90.9924 242.818 91.1199 242.446 91.4172 242.299C91.5767 242.22 91.7349 242.14 91.8917 242.059C92.635 241.672 93.368 241.24 94.0702 240.777C94.3485 240.592 94.7161 240.681 94.8921 240.973C94.9029 240.992 94.9131 241.01 94.922 241.029ZM89.327 243.786C89.3395 243.813 89.3508 243.841 89.3599 243.87C89.4629 244.198 89.2932 244.552 88.9807 244.659C87.9783 245.005 86.9464 245.288 85.9142 245.5C85.5914 245.567 85.278 245.344 85.2138 245.006C85.1499 244.667 85.3593 244.339 85.6821 244.272C86.667 244.069 87.6511 243.799 88.6072 243.47C88.892 243.372 89.1971 243.512 89.327 243.786ZM83.2591 245.035C83.2928 245.106 83.314 245.185 83.32 245.269C83.3436 245.614 83.0962 245.912 82.768 245.936C81.7167 246.012 80.6488 246.02 79.5949 245.959C79.266 245.94 79.0143 245.646 79.0316 245.3C79.0488 244.955 79.3294 244.691 79.6577 244.71C80.6629 244.768 81.6806 244.761 82.6833 244.688C82.9313 244.67 83.1548 244.814 83.2591 245.035ZM77.081 244.677C77.136 244.794 77.157 244.928 77.1342 245.065C77.0764 245.405 76.7668 245.632 76.4429 245.57C75.4031 245.373 74.3662 245.106 73.3601 244.777C73.0458 244.674 72.8704 244.323 72.9671 243.993C73.064 243.663 73.3976 243.479 73.7123 243.582C74.671 243.896 75.6606 244.15 76.6518 244.338C76.8451 244.375 76.9997 244.506 77.081 244.677ZM71.1699 242.746C71.2467 242.908 71.2562 243.104 71.1801 243.282C71.0455 243.597 70.6929 243.736 70.3926 243.594C69.4306 243.138 68.486 242.615 67.5855 242.04C67.3032 241.86 67.2137 241.475 67.3843 241.18C67.5549 240.885 67.9213 240.791 68.2024 240.971C69.0619 241.519 69.9628 242.018 70.8809 242.454C71.0115 242.516 71.1107 242.621 71.1699 242.746ZM65.8815 239.368C65.9809 239.578 65.9633 239.839 65.8159 240.035C65.6124 240.306 65.2379 240.351 64.9794 240.137C64.1512 239.449 63.3561 238.7 62.6167 237.911C62.3856 237.663 62.3883 237.268 62.6223 237.026C62.8562 236.784 63.2338 236.788 63.4646 237.034C64.1699 237.786 64.9276 238.5 65.7171 239.156C65.7887 239.215 65.8435 239.288 65.8815 239.368ZM61.5379 234.738C61.6624 235.001 61.5969 235.328 61.3674 235.512C61.1065 235.722 60.7324 235.669 60.5318 235.395C59.8914 234.518 59.2951 233.587 58.7589 232.629C58.5965 232.327 58.6873 231.946 58.9709 231.772C59.2545 231.598 59.6195 231.698 59.7865 231.996C60.2974 232.911 60.8662 233.799 61.4769 234.635C61.5009 234.668 61.5211 234.702 61.5379 234.738ZM57.3486 226.066C57.3639 226.098 57.3769 226.132 57.3869 226.168C57.6321 227.044 57.9272 227.921 58.2641 228.776C58.3145 228.906 58.3653 229.032 58.4177 229.158C58.5485 229.476 58.4105 229.844 58.1086 229.981C57.8064 230.118 57.446 229.974 57.3246 229.654C57.2694 229.52 57.2149 229.386 57.1621 229.25C56.8103 228.357 56.501 227.437 56.2441 226.519C56.1513 226.187 56.3317 225.84 56.6474 225.743C56.9286 225.657 57.2222 225.798 57.3486 226.066Z" fill="url(#paint19_linear_428_600)"/>
    </g>
    <g opacity="0.3">
        <path d="M103.813 206.654C103.958 206.96 103.842 207.333 103.552 207.489C103.26 207.646 102.9 207.524 102.75 207.216C102.297 206.29 101.787 205.384 101.233 204.525C101.052 204.239 101.119 203.85 101.391 203.656C101.664 203.463 102.034 203.539 102.219 203.825C102.799 204.726 103.335 205.675 103.81 206.646C103.81 206.646 103.812 206.652 103.813 206.654ZM105.041 209.587C105.051 209.608 105.059 209.628 105.067 209.65C105.428 210.672 105.732 211.728 105.974 212.787C106.05 213.124 105.853 213.46 105.533 213.54C105.212 213.62 104.891 213.41 104.814 213.075C104.584 212.064 104.293 211.057 103.95 210.081C103.835 209.757 103.993 209.398 104.301 209.278C104.59 209.167 104.907 209.305 105.041 209.587ZM100.398 201.358C100.516 201.607 100.465 201.917 100.257 202.108C100.009 202.334 99.633 202.307 99.4162 202.047C98.763 201.262 98.0596 200.512 97.3241 199.818C97.0796 199.585 97.0585 199.191 97.2784 198.935C97.4977 198.678 97.8747 198.657 98.1198 198.888C98.8906 199.616 99.6282 200.402 100.312 201.225C100.347 201.266 100.376 201.311 100.398 201.358ZM106.453 215.809C106.483 215.873 106.504 215.943 106.512 216.018C106.628 217.102 106.682 218.204 106.671 219.293C106.668 219.639 106.398 219.915 106.069 219.911C105.741 219.906 105.477 219.622 105.479 219.277C105.49 218.239 105.438 217.188 105.328 216.155C105.291 215.812 105.526 215.503 105.853 215.465C106.109 215.435 106.345 215.58 106.453 215.809ZM95.8672 197.084C95.9611 197.283 95.9518 197.528 95.8228 197.721C95.6343 198.005 95.2629 198.073 94.9932 197.875C94.1826 197.278 93.3288 196.728 92.4547 196.239C92.1634 196.076 92.0534 195.697 92.2077 195.392C92.362 195.087 92.7228 194.972 93.0135 195.135C93.9295 195.648 94.825 196.225 95.6752 196.85C95.7597 196.912 95.8243 196.994 95.8672 197.084ZM90.4949 194.074C90.5669 194.226 90.5801 194.407 90.5178 194.578C90.3997 194.9 90.0549 195.06 89.7479 194.935C88.8227 194.559 87.868 194.239 86.9109 193.983C86.5914 193.898 86.3981 193.556 86.4787 193.222C86.559 192.887 86.8827 192.685 87.2015 192.77C88.2054 193.038 89.2062 193.374 90.1756 193.768C90.3202 193.827 90.4309 193.939 90.4949 194.074ZM84.5933 192.5C84.6438 192.607 84.6663 192.73 84.6506 192.857C84.6097 193.2 84.3115 193.442 83.9849 193.398C83.0019 193.264 82.0027 193.194 81.0151 193.188C80.6867 193.185 80.4204 192.904 80.4218 192.558C80.423 192.213 80.6905 191.934 81.0199 191.936C82.0553 191.943 83.1034 192.017 84.1346 192.156C84.3399 192.184 84.5074 192.319 84.5933 192.5Z" fill="url(#paint20_linear_428_600)"/>
        <path d="M106.389 222.23C106.44 222.338 106.462 222.463 106.446 222.592C106.378 223.122 106.295 223.653 106.2 224.17C106.137 224.509 105.824 224.73 105.501 224.663C105.179 224.596 104.968 224.267 105.03 223.928C105.121 223.436 105.2 222.929 105.265 222.423C105.308 222.08 105.608 221.84 105.934 221.887C106.138 221.917 106.304 222.05 106.389 222.23Z" fill="url(#paint21_linear_428_600)"/>
    </g>
    <path d="M99.2779 225.349C99.3309 225.226 99.3037 225.081 99.2101 224.988L96.54 222.334C96.8713 220.568 96.9368 218.732 96.7067 216.894L99.5297 214.439C99.6288 214.353 99.6647 214.211 99.6193 214.084L98.0642 209.752C98.0187 209.626 97.9019 209.543 97.7732 209.547L94.1054 209.649C93.1222 208.107 91.9186 206.772 90.5583 205.672L90.8974 201.833C90.9093 201.698 90.8385 201.57 90.7212 201.514L86.7079 199.599C86.5906 199.543 86.4526 199.571 86.3643 199.669L83.8439 202.467C82.1615 202.115 80.4141 202.042 78.6645 202.279L76.3205 199.308C76.2383 199.204 76.1024 199.166 75.982 199.214L71.8614 200.837C71.7409 200.884 71.6626 201.007 71.6664 201.142L71.7721 204.994C70.3067 206.023 69.0383 207.284 67.9944 208.71L64.3382 208.345C64.2102 208.332 64.0886 208.406 64.0356 208.529L62.2216 212.74C62.1686 212.863 62.1959 213.008 62.2894 213.101L64.9595 215.755C64.628 217.521 64.5627 219.356 64.7928 221.194L61.9696 223.649C61.8706 223.735 61.8346 223.878 61.88 224.004L63.4352 228.336C63.4806 228.463 63.5974 228.545 63.7261 228.542L67.3939 228.44C68.3771 229.981 69.5807 231.317 70.941 232.416L70.602 236.255C70.5901 236.39 70.6609 236.518 70.7781 236.574L74.7914 238.489C74.9087 238.545 75.0467 238.517 75.135 238.419L77.6554 235.621C79.3378 235.973 81.0852 236.046 82.8348 235.809L85.1789 238.78C85.261 238.884 85.397 238.922 85.5174 238.875L89.6379 237.252C89.7583 237.204 89.8366 237.082 89.8329 236.947L89.7272 233.094C91.1925 232.065 92.461 230.804 93.5049 229.378L97.161 229.743C97.2891 229.756 97.4107 229.682 97.4638 229.559L99.2779 225.349Z" fill="url(#paint22_linear_428_600)"/>
    <path opacity="0.7" d="M84.7889 216.954C85.2172 217.859 85.358 218.879 85.1856 219.89C84.9733 221.134 84.3123 222.215 83.3242 222.935C81.2856 224.421 78.4716 223.885 77.0512 221.74C75.6332 219.589 76.1357 216.639 78.175 215.153C79.163 214.433 80.3597 214.161 81.5442 214.387C82.7293 214.613 83.7608 215.31 84.4484 216.35C84.5766 216.544 84.6906 216.746 84.7889 216.954ZM77.7809 220.586C77.8523 220.737 77.935 220.884 78.029 221.027C79.0738 222.605 81.1437 222.999 82.6437 221.906C83.3701 221.377 83.8568 220.581 84.0126 219.667C84.1686 218.751 83.9753 217.827 83.4703 217.062C82.9643 216.297 82.2056 215.784 81.3343 215.618C80.4624 215.452 79.5822 215.652 78.8553 216.182C77.4909 217.176 77.0608 219.065 77.7809 220.586Z" fill="white"/>
    <path opacity="0.7" d="M90.7052 213.776C90.8732 214.131 91.0253 214.497 91.1615 214.875C91.4315 215.627 91.629 216.408 91.7487 217.198C91.7539 217.234 91.759 217.269 91.7641 217.305C91.8035 217.58 91.666 217.839 91.4411 217.957C91.3864 217.985 91.3264 218.005 91.2629 218.015C90.9375 218.065 90.6356 217.828 90.5859 217.487C90.4807 216.748 90.299 216.017 90.0466 215.315L90.0465 215.315C90.0327 215.276 90.0183 215.238 90.0042 215.2C89.3924 213.544 88.4111 212.109 87.1541 210.99C86.4717 210.382 85.7074 209.867 84.8756 209.46C84.8688 209.457 84.8621 209.454 84.8553 209.451C84.8343 209.441 84.8139 209.43 84.7931 209.421C82.3514 208.256 79.626 208.158 77.1191 209.145C76.7946 209.273 76.4791 209.417 76.1728 209.576C74.1124 210.648 72.4811 212.418 71.5199 214.649C70.4164 217.211 70.33 220.073 71.2761 222.708C72.2226 225.341 74.088 227.436 76.5294 228.602C78.9712 229.767 81.6965 229.865 84.2034 228.877C84.5224 228.752 84.8342 228.61 85.1373 228.452C86.4518 227.768 87.6081 226.789 88.5204 225.581C88.5767 225.507 88.6457 225.45 88.7218 225.41C88.9219 225.306 89.1704 225.325 89.3572 225.481C89.6146 225.697 89.6589 226.09 89.4542 226.361C88.4334 227.712 87.1395 228.808 85.6694 229.573C85.3298 229.75 84.9813 229.909 84.6245 230.049C81.8194 231.154 78.7704 231.044 76.0385 229.741C73.3071 228.437 71.2184 226.098 70.1613 223.147C69.1026 220.198 69.1994 216.997 70.4347 214.13C71.5094 211.635 73.3346 209.655 75.6399 208.455C75.9821 208.277 76.3354 208.116 76.6982 207.973C82.1286 205.834 88.1726 208.425 90.7052 213.776Z" fill="white"/>
    <defs>
        <linearGradient id="paint0_linear_428_600" x1="279.718" y1="318.876" x2="60.2967" y2="46.369" gradientUnits="userSpaceOnUse">
            <stop stop-color="#DAE3FE"/>
            <stop offset="1" stop-color="#E9EFFD"/>
        </linearGradient>
        <linearGradient id="paint1_linear_428_600" x1="68.7953" y1="59.527" x2="126.577" y2="59.527" gradientUnits="userSpaceOnUse">
            <stop offset="0.9999" stop-color="#62398C"/>
            <stop offset="1" stop-color="#4042E2"/>
        </linearGradient>
        <linearGradient id="paint2_linear_428_600" x1="173.314" y1="241.76" x2="140.96" y2="158.468" gradientUnits="userSpaceOnUse">
            <stop stop-color="#FEBBBA"/>
            <stop offset="1" stop-color="#FF928E"/>
        </linearGradient>
        <linearGradient id="paint3_linear_428_600" x1="173.805" y1="509.671" x2="66.8699" y2="-740.138" gradientUnits="userSpaceOnUse">
            <stop stop-color="#FEBBBA"/>
            <stop offset="1" stop-color="#FF928E"/>
        </linearGradient>
        <linearGradient id="paint4_linear_428_600" x1="169.961" y1="109.993" x2="156.247" y2="109.993" gradientUnits="userSpaceOnUse">
            <stop stop-color="#FEBBBA"/>
            <stop offset="1" stop-color="#FF928E"/>
        </linearGradient>
        <linearGradient id="paint5_linear_428_600" x1="154.984" y1="79.3941" x2="145.244" y2="79.3941" gradientUnits="userSpaceOnUse">
            <stop stop-color="#FEBBBA"/>
            <stop offset="1" stop-color="#FF928E"/>
        </linearGradient>
        <linearGradient id="paint6_linear_428_600" x1="97.8369" y1="84.9472" x2="182.078" y2="133.207" gradientUnits="userSpaceOnUse">
            <stop stop-color="#FEBBBA"/>
            <stop offset="1" stop-color="#FF928E"/>
        </linearGradient>
        <linearGradient id="paint7_linear_428_600" x1="89.4666" y1="99.5582" x2="173.707" y2="147.818" gradientUnits="userSpaceOnUse">
            <stop stop-color="#FEBBBA"/>
            <stop offset="1" stop-color="#FF928E"/>
        </linearGradient>
        <linearGradient id="paint8_linear_428_600" x1="138.761" y1="79.3901" x2="157.689" y2="51.7127" gradientUnits="userSpaceOnUse">
            <stop stop-color="#FEBBBA"/>
            <stop offset="1" stop-color="#FF928E"/>
        </linearGradient>
        <linearGradient id="paint9_linear_428_600" x1="148.786" y1="59.6155" x2="175.6" y2="94.4737" gradientUnits="userSpaceOnUse">
            <stop stop-color="#1D083A"/>
            <stop offset="1" stop-color="#5B3885"/>
        </linearGradient>
        <linearGradient id="paint10_linear_428_600" x1="231.395" y1="-40.5898" x2="193.631" y2="98.846" gradientUnits="userSpaceOnUse">
            <stop offset="0.706731" stop-color="#744BA0"/>
            <stop offset="1" stop-color="#E9605A"/>
        </linearGradient>
        <linearGradient id="paint11_linear_428_600" x1="225.033" y1="-6.44578" x2="201.793" y2="62.678" gradientUnits="userSpaceOnUse">
            <stop stop-color="#FF928E"/>
            <stop offset="0.274038" stop-color="#C4AAE1"/>
            <stop offset="0.71811" stop-color="#C4AAE1"/>
        </linearGradient>
        <linearGradient id="paint12_linear_428_600" x1="216.857" y1="-24.8233" x2="206.205" y2="78.5485" gradientUnits="userSpaceOnUse">
            <stop offset="0.903846" stop-color="#C4AAE1"/>
            <stop offset="1" stop-color="#FE7062"/>
        </linearGradient>
        <linearGradient id="paint13_linear_428_600" x1="42.3868" y1="229.696" x2="17.2194" y2="178.976" gradientUnits="userSpaceOnUse">
            <stop stop-color="#FF928E"/>
            <stop offset="1" stop-color="#FFF2BB" stop-opacity="0.6"/>
        </linearGradient>
        <linearGradient id="paint14_linear_428_600" x1="3.55085" y1="182.596" x2="2.056" y2="179.584" gradientUnits="userSpaceOnUse">
            <stop stop-color="#FF928E"/>
            <stop offset="1" stop-color="#FE7062"/>
        </linearGradient>
        <linearGradient id="paint15_linear_428_600" x1="18.0948" y1="155.468" x2="17.0609" y2="153.385" gradientUnits="userSpaceOnUse">
            <stop stop-color="#FF928E"/>
            <stop offset="1" stop-color="#FE7062"/>
        </linearGradient>
        <linearGradient id="paint16_linear_428_600" x1="65.0959" y1="194.035" x2="39.1479" y2="141.742" gradientUnits="userSpaceOnUse">
            <stop stop-color="#FF928E"/>
            <stop offset="1" stop-color="#FFF2BB" stop-opacity="0.6"/>
        </linearGradient>
        <linearGradient id="paint17_linear_428_600" x1="77.8263" y1="194.362" x2="76.3499" y2="191.387" gradientUnits="userSpaceOnUse">
            <stop stop-color="#FF928E"/>
            <stop offset="1" stop-color="#FE7062"/>
        </linearGradient>
        <linearGradient id="paint18_linear_428_600" x1="97.8298" y1="239.638" x2="97.0914" y2="238.15" gradientUnits="userSpaceOnUse">
            <stop stop-color="#FF928E"/>
            <stop offset="1" stop-color="#FE7062"/>
        </linearGradient>
        <linearGradient id="paint19_linear_428_600" x1="82.4499" y1="248.134" x2="68.4332" y2="219.886" gradientUnits="userSpaceOnUse">
            <stop stop-color="#FF928E"/>
            <stop offset="1" stop-color="#FE7062"/>
        </linearGradient>
        <linearGradient id="paint20_linear_428_600" x1="102.956" y1="221.526" x2="86.813" y2="188.993" gradientUnits="userSpaceOnUse">
            <stop stop-color="#FF928E"/>
            <stop offset="1" stop-color="#FFB111"/>
        </linearGradient>
        <linearGradient id="paint21_linear_428_600" x1="106.294" y1="224.405" x2="105.176" y2="222.151" gradientUnits="userSpaceOnUse">
            <stop stop-color="#FF928E"/>
            <stop offset="1" stop-color="#FFB111"/>
        </linearGradient>
        <linearGradient id="paint22_linear_428_600" x1="89.7742" y1="188.707" x2="68.7699" y2="259.317" gradientUnits="userSpaceOnUse">
            <stop stop-color="#FF928E"/>
            <stop offset="0.394231" stop-color="#FFB111"/>
        </linearGradient>
    </defs>
</svg>
